HIERARCHY
ROOT spine_down
{
	OFFSET 0.000000 0.000000 0.000000
	CHANNELS 6 Xposition Yposition Zposition Xrotation Yrotation Zrotation
	JOINT leg_up.L
	{
		OFFSET -0.558471 0.000000 -0.073760
		CHANNELS 6 Xposition Yposition Zposition Xrotation Yrotation Zrotation
		JOINT leg_low.L
		{
			OFFSET -0.337190 0.000000 -1.233882
			CHANNELS 3 Xrotation Yrotation Zrotation
			End Site
			{
				OFFSET -0.052686 0.000000 -1.812394
			}
		}
	}
	JOINT leg_up.R
	{
		OFFSET 0.547933 0.000000 -0.042149
		CHANNELS 6 Xposition Yposition Zposition Xrotation Yrotation Zrotation
		JOINT leg_low.R
		{
			OFFSET 0.463636 0.000000 -1.339253
			CHANNELS 3 Xrotation Yrotation Zrotation
			End Site
			{
				OFFSET 0.021074 0.000000 -1.749171
			}
		}
	}
	JOINT spine_up
	{
		OFFSET 0.000000 0.000000 1.000000
		CHANNELS 3 Xrotation Yrotation Zrotation
		JOINT neck
		{
			OFFSET 0.010537 -0.000000 1.022106
			CHANNELS 3 Xrotation Yrotation Zrotation
			JOINT head
			{
				OFFSET -0.021074 -0.000000 0.263429
				CHANNELS 3 Xrotation Yrotation Zrotation
				End Site
				{
					OFFSET 0.010537 -0.000000 0.842974
				}
			}
		}
		JOINT shoulder.L
		{
			OFFSET -0.231818 -0.000000 0.728097
			CHANNELS 6 Xposition Yposition Zposition Xrotation Yrotation Zrotation
			JOINT arm_up.L
			{
				OFFSET -0.748140 0.000000 -0.095866
				CHANNELS 3 Xrotation Yrotation Zrotation
				JOINT arm_low.L
				{
					OFFSET -0.716528 0.000000 -0.705991
					CHANNELS 3 Xrotation Yrotation Zrotation
					JOINT palm.L
					{
						OFFSET -0.432024 0.000000 -1.022106
						CHANNELS 3 Xrotation Yrotation Zrotation
						End Site
						{
							OFFSET -0.158058 0.000000 -0.653305
						}
					}
				}
			}
		}
		JOINT shoulder.R
		{
			OFFSET 0.347727 -0.000000 0.759709
			CHANNELS 6 Xposition Yposition Zposition Xrotation Yrotation Zrotation
			JOINT arm_up.R
			{
				OFFSET 0.632231 0.000000 -0.116941
				CHANNELS 3 Xrotation Yrotation Zrotation
				JOINT arm_low.R
				{
					OFFSET 0.684917 0.000000 -0.663842
					CHANNELS 3 Xrotation Yrotation Zrotation
					JOINT palm.R
					{
						OFFSET 0.442562 0.000000 -1.085329
						CHANNELS 3 Xrotation Yrotation Zrotation
						End Site
						{
							OFFSET 0.221281 0.000000 -0.621693
						}
					}
				}
			}
		}
	}
}
MOTION
Frames: 11
Frame Time: 0.041667
0.000000 0.000000 0.000000 -0.000000 0.000000 -0.000000 -0.558471 0.000000 -0.073760 -63.547233 -9.535847 8.883801 38.254988 8.096537 -6.790366 0.547933 0.000000 -0.042149 6.101786 0.493773 0.361680 62.438639 8.958273 5.998030 -0.000000 -0.000000 -0.000000 0.000000 -0.000000 0.000000 -0.000490 -13.995081 -0.000054 -0.231818 -0.000000 0.728097 18.508436 5.836717 -17.539548 16.054191 -4.399079 -9.010305 -13.365884 -6.634000 -1.801768 -22.727719 -11.388867 -3.040389 0.347727 -0.000000 0.759709 -5.469489 -0.168867 -4.703546 -5.775959 1.752270 -5.680450 -40.510163 4.349155 -2.922297 -24.937393 1.846995 -0.846945 
0.000000 0.000000 0.000000 -0.000000 0.000000 -0.000000 -0.558471 0.000000 -0.073760 -63.275863 -9.484220 8.874974 38.353951 8.021627 -6.804490 0.547933 0.000000 -0.042149 5.833475 0.501937 0.292359 62.337156 8.886417 6.015310 -0.000000 -0.000000 -0.000000 0.000000 -0.000000 0.000000 -0.001969 -13.880077 -0.000215 -0.231818 -0.000000 0.728097 18.407724 5.833122 -17.443475 15.965926 -4.377224 -8.952769 -13.476986 -6.618469 -1.782498 -22.735912 -11.356879 -3.037756 0.347727 -0.000000 0.759708 -5.373455 -0.210355 -4.622765 -5.685730 1.752139 -5.618225 -40.398120 4.354094 -2.900071 -24.930838 1.879336 -0.843046 
0.000000 0.000000 0.000000 -0.000000 0.000000 -0.000000 -0.558471 0.000000 -0.073760 -62.820699 -9.397703 8.859616 38.519596 7.896125 -6.827843 0.547933 0.000000 -0.042149 5.383407 0.516363 0.176164 62.167330 8.766016 6.043954 -0.000000 -0.000000 -0.000000 0.000000 -0.000000 0.000000 -0.004442 -13.687499 -0.000478 -0.231818 -0.000000 0.728097 18.239069 5.826725 -17.282597 15.818073 -4.340830 -8.856348 -13.663046 -6.592553 -1.750170 -22.749647 -11.303338 -3.033348 0.347727 -0.000000 0.759708 -5.212490 -0.279532 -4.487319 -5.534637 1.752128 -5.514029 -40.210502 4.362464 -2.862869 -24.919865 1.933472 -0.836520 
0.000000 0.000000 0.000000 -0.000000 0.000000 -0.000000 -0.558471 0.000000 -0.073760 -62.179604 -9.276029 8.836804 38.752219 7.719645 -6.860036 0.547933 0.000000 -0.042149 4.749398 0.538231 0.012665 61.928868 8.596682 6.083577 -0.000000 -0.000000 -0.000000 0.000000 -0.000000 0.000000 -0.007913 -13.416889 -0.000833 -0.231818 -0.000000 0.728097 18.002084 5.816938 -17.056535 15.610230 -4.290105 -8.720711 -13.924503 -6.556312 -1.704604 -22.768934 -11.228136 -3.027132 0.347727 -0.000000 0.759708 -4.985992 -0.376111 -4.296636 -5.322331 1.752582 -5.367614 -39.946853 4.374440 -2.810645 -24.904465 2.009514 -0.827373 
0.000000 0.000000 0.000000 -0.000000 0.000000 -0.000000 -0.558471 0.000000 -0.073760 -61.350774 -9.119062 8.805274 39.051784 7.491979 -6.900445 0.547933 0.000000 -0.042149 3.929561 0.569196 -0.198402 61.621810 8.378172 6.133578 -0.000000 -0.000000 -0.000000 0.000000 -0.000000 0.000000 -0.012378 -13.068109 -0.001265 -0.231818 -0.000000 0.728097 17.696643 5.802949 -16.765184 15.342205 -4.225463 -8.545644 -14.261495 -6.509902 -1.645629 -22.793779 -11.131273 -3.019092 0.347727 -0.000000 0.759708 -4.693532 -0.499496 -4.050258 -5.048711 1.753962 -5.178924 -39.607065 4.390218 -2.743407 -24.884652 2.107465 -0.815622 
0.000000 0.000000 0.000000 -0.000000 0.000000 -0.000000 -0.558471 0.000000 -0.073760 -60.332891 -8.926866 8.763416 39.417865 7.213130 -6.948223 0.547933 0.000000 -0.042149 2.922515 0.611364 -0.457067 61.246607 8.110450 6.193108 -0.000000 -0.000000 -0.000000 0.000000 -0.000000 0.000000 -0.017828 -12.641407 -0.001754 -0.231818 -0.000000 0.728097 17.322980 5.783727 -16.408770 15.014069 -4.147487 -8.331081 -14.673811 -6.453602 -1.573117 -22.824175 -11.012854 -3.009207 0.347727 -0.000000 0.759708 -4.334912 -0.648774 -3.747897 -4.713983 1.756881 -4.948103 -39.191362 4.410065 -2.661279 -24.860439 2.227224 -0.801298 
0.000000 0.000000 0.000000 -0.000000 0.000000 -0.000000 -0.558471 0.000000 -0.073760 -59.125355 -8.699758 8.709298 39.849735 6.883373 -7.002315 0.547933 0.000000 -0.042149 1.727607 0.667299 -0.763031 60.804099 7.793734 6.261092 -0.000000 -0.000000 -0.000000 0.000000 -0.000000 0.000000 -0.024249 -12.137454 -0.002278 -0.231818 -0.000000 0.728097 16.881723 5.758040 -15.987892 14.626225 -4.056981 -8.077146 -15.160819 -6.387770 -1.486962 -22.860049 -10.873119 -2.997462 0.347727 -0.000000 0.759708 -3.910220 -0.822683 -3.389484 -4.318695 1.762058 -4.675527 -38.700419 4.434274 -2.564467 -24.831913 2.368559 -0.784458 
0.000000 0.000000 0.000000 -0.000000 0.000000 -0.000000 -0.558471 0.000000 -0.073760 -57.728547 -8.438414 8.640687 40.346091 6.503293 -7.061433 0.547933 0.000000 -0.042149 0.345160 0.739979 -1.115568 60.295578 7.428520 6.336233 -0.000000 -0.000000 -0.000000 0.000000 -0.000000 0.000000 -0.031619 -11.557431 -0.002808 -0.231818 -0.000000 0.728097 16.373970 5.724478 -15.503614 14.179426 -3.954949 -7.784187 -15.721390 -6.312905 -1.387122 -22.901302 -10.712444 -2.983856 0.347727 -0.000000 0.759708 -3.419901 -1.019607 -2.975231 -3.863808 1.770343 -4.361887 -38.135388 4.463154 -2.453297 -24.799155 2.531083 -0.765183 
0.000000 0.000000 0.000000 -0.000000 0.000000 -0.000000 -0.558471 0.000000 -0.073760 -56.144059 -8.143922 8.555109 40.905245 6.073849 -7.124108 0.547933 0.000000 -0.042149 -1.223222 0.832734 -1.513405 59.722874 7.015665 6.417020 -0.000000 -0.000000 -0.000000 0.000000 -0.000000 0.000000 -0.039909 -10.903086 -0.003314 -0.231818 -0.000000 0.728097 15.801356 5.681473 -14.957512 13.674859 -3.842593 -7.452805 -16.353865 -6.229617 -1.273624 -22.947832 -10.531377 -2.968394 0.347727 -0.000000 0.759708 -2.864826 -1.237569 -2.505694 -3.350731 1.782681 -4.008177 -37.497984 4.497047 -2.328226 -24.762303 2.714265 -0.743566 
0.000000 0.000000 0.000000 -0.000000 0.000000 -0.000000 -0.558471 0.000000 -0.073760 -54.374986 -7.817880 8.449916 41.524924 5.596418 -7.188691 0.547933 0.000000 -0.042149 -2.974356 0.949174 -1.954611 59.088369 6.556430 6.501749 -0.000000 -0.000000 -0.000000 0.000000 -0.000000 0.000000 -0.049082 -10.176799 -0.003761 -0.231818 -0.000000 0.728097 15.166121 5.627365 -14.351737 13.114177 -3.721307 -7.083923 -17.055968 -6.138634 -1.146596 -22.999438 -10.330631 -2.951077 0.347727 -0.000000 0.759708 -2.246368 -1.474234 -1.981844 -2.781387 1.800073 -3.615743 -36.790558 4.536288 -2.189847 -24.721508 2.917390 -0.719731 
0.000000 0.000000 0.000000 -0.000000 0.000000 -0.000000 -0.558471 0.000000 -0.073760 -52.426237 -7.462485 8.322385 42.202318 5.072861 -7.253406 0.547933 0.000000 -0.042149 -4.903158 1.093035 -2.436479 58.394982 6.052520 6.588574 -0.000000 -0.000000 -0.000000 0.000000 -0.000000 0.000000 -0.059096 -9.381646 -0.004114 -0.231818 -0.000000 0.728097 14.471156 5.560443 -13.689070 12.499586 -3.592673 -6.678813 -17.824745 -6.040810 -1.006274 -23.055915 -10.111100 -2.931946 0.347727 -0.000000 0.759708 -1.566470 -1.726926 -1.405137 -2.158247 1.823589 -3.186359 -36.016083 4.581201 -2.038907 -24.676989 3.139555 -0.693823 
